<svg width="45" height="27" viewBox="0 0 45 27" fill="none" xmlns="http://www.w3.org/2000/svg">
<path d="M10.875 2.06254C9.37498 0.562502 2.99998 0.187559 0.937445 0C0.749974 0 0.562414 2.93368e-07 0.374943 0.187472C0.187471 0.375031 0 0.750062 0 0.937533V17.8126C0 18.3751 0.375031 18.7501 0.937533 18.7501H6.56255C6.93758 18.7501 7.31253 18.5627 7.50009 18.1876C7.50009 17.6251 10.8751 7.68756 11.2501 2.8126C11.25 2.62504 11.25 2.2501 10.875 2.06254Z" fill="white"/>
<path d="M30.9375 6.56273C29.0626 6.00023 27.3751 5.25026 25.875 4.68775C22.5 3.18772 21 3.93778 18 6.93777C16.6875 8.25024 15.75 10.1253 15.9375 10.8753C15.9375 11.0628 15.9375 11.0628 16.3125 11.2503C17.25 11.6253 18.5625 11.8128 19.875 9.75028C20.0624 9.56281 20.25 9.37525 20.6249 9.37525C21.1874 9.37525 21.3749 9.18777 21.9374 9.00022C22.3125 8.81274 22.6874 8.62519 23.2499 8.43771C23.4374 8.43771 23.4374 8.43771 23.6249 8.43771C23.8124 8.43771 24.1874 8.62518 24.3749 8.62518C25.3125 9.56281 27 10.8753 28.6875 12.3753C31.3126 14.4379 33.9375 16.6879 35.2501 18.3754H35.4376C34.1251 14.6253 31.8751 8.25024 30.9375 6.56273Z" fill="white"/>
<path d="M44.0626 1.87524C36.7501 1.87524 32.6251 3.75022 32.4375 3.75022C32.25 3.93769 32.0625 4.12525 31.875 4.31272C31.875 4.5002 31.875 4.87523 32.0625 5.0627C33.1875 6.93768 36.9375 17.2503 37.5 19.8752C37.6875 20.2503 38.0625 20.6252 38.4376 20.6252H44.0626C44.6251 20.6252 45.0001 20.2502 45.0001 19.6877V2.8126C45.0001 2.25027 44.6251 1.87524 44.0626 1.87524Z" fill="white"/>
<path d="M33.9375 20.2503C33.1875 18.5628 30 16.1253 27.1875 13.8753C25.6875 12.5627 24.1875 11.4377 23.0625 10.5002C22.875 10.6877 22.5 10.6877 22.5 10.8752C21.9375 11.0627 21.75 11.2503 21 11.2503C19.5 13.1252 17.6249 13.8752 15.5625 13.1252C14.625 12.9378 14.0625 12.1877 13.875 11.4377C13.5 9.56276 15.1875 6.93772 16.5 5.62524H12.75C12 9.37529 10.6874 14.2503 9.75 16.8753C10.5 17.6253 11.25 18.5628 11.8125 18.9378C15.375 21.9378 19.5001 24.9379 20.2501 25.5004C20.8126 25.8754 21.9376 26.2504 22.5001 26.2504C22.6875 26.2504 22.8751 26.2504 23.0626 26.2504L20.0625 23.2503C19.6875 22.8753 19.6875 22.3128 20.0625 21.9378C20.4375 21.5629 21 21.5628 21.375 21.9378L25.125 25.6879C25.5001 26.0629 25.875 25.8753 26.25 25.8753C26.8125 25.6879 27 25.3128 27.1876 24.7503L22.875 20.4378C22.5 20.0628 22.5 19.5002 22.875 19.1253C23.2501 18.7504 23.8126 18.7503 24.1875 19.1253L28.875 23.8128C29.0625 24.0003 29.8125 24.0003 30.375 23.8128C30.5625 23.6253 30.9375 23.4378 31.125 23.0628L25.875 17.8127C25.5 17.4377 25.5 16.8752 25.875 16.5003C26.25 16.1253 26.8125 16.1252 27.1875 16.5003L32.625 21.9378C33.0001 22.1253 33.375 21.9378 33.75 21.7503C33.9375 21.5628 34.3125 21.0003 33.9375 20.2503Z" fill="white"/>
</svg>
