<svg width="44" height="41" viewBox="0 0 44 41" fill="none" xmlns="http://www.w3.org/2000/svg">
<path d="M38.9037 12.2955L27.4102 11.2577L22.8447 0.936786C22.525 0.214105 21.4725 0.214105 21.1529 0.936786L16.5873 11.2576L5.09382 12.2955C4.28901 12.3681 3.96382 13.3426 4.57097 13.8619L13.2428 21.2783L10.705 32.2406C10.5273 33.0082 11.3788 33.6104 12.0737 33.2087L21.9988 27.4714L31.9238 33.2087C32.6188 33.6105 33.4702 33.0082 33.2925 32.2406L30.7546 21.2783L39.4266 13.8619C40.0337 13.3426 39.7084 12.3681 38.9037 12.2955Z" fill="white"/>
<path d="M10.2506 0.581596C10.8365 1.37388 12.4903 4.77646 13.4358 6.75944C13.5845 7.07117 13.1827 7.35278 12.9262 7.1166C11.2945 5.61468 8.5045 3.00841 7.91858 2.21604C7.45494 1.58915 7.60112 0.715038 8.24514 0.263676C8.88908 -0.187686 9.78696 -0.0452916 10.2506 0.581596Z" fill="white"/>
<path d="M33.7493 0.581596C33.1634 1.37388 31.5096 4.77646 30.5641 6.75944C30.4154 7.07117 30.8172 7.35278 31.0737 7.1166C32.7054 5.61468 35.4953 3.00833 36.0813 2.21604C36.545 1.58915 36.3988 0.715038 35.7548 0.263676C35.1108 -0.187686 34.2129 -0.0452916 33.7493 0.581596Z" fill="white"/>
<path d="M43.0084 23.8149C42.055 23.5122 38.2226 23.0121 35.9948 22.7377C35.6446 22.6945 35.4911 23.1528 35.8 23.3189C37.7657 24.376 41.164 26.1717 42.1174 26.4744C42.8717 26.714 43.6827 26.3128 43.9288 25.5783C44.1748 24.8438 43.7628 24.0544 43.0084 23.8149Z" fill="white"/>
<path d="M0.991604 23.8149C1.945 23.5122 5.77743 23.0121 8.00521 22.7377C8.35541 22.6945 8.50889 23.1528 8.19994 23.3189C6.23428 24.376 2.83601 26.1717 1.88261 26.4744C1.12825 26.714 0.317246 26.3128 0.0712039 25.5783C-0.174838 24.8438 0.237237 24.0544 0.991604 23.8149Z" fill="white"/>
<path d="M20.6067 39.6015C20.6067 38.6252 21.3067 34.9231 21.7295 32.7761C21.7959 32.4386 22.291 32.4386 22.3574 32.7761C22.7802 34.9231 23.4802 38.6252 23.4802 39.6015C23.4802 40.3739 22.837 41.0001 22.0435 41.0001C21.2499 41.0002 20.6067 40.3739 20.6067 39.6015Z" fill="white"/>
</svg>
