<svg width="92" height="9" viewBox="0 0 92 9" fill="none" xmlns="http://www.w3.org/2000/svg">
<path d="M1.18387 6.36224C8.6892 8.03201 16.197 8.86751 23.7066 8.86751C30.9478 8.86751 38.1884 8.09063 45.426 6.5381L46.23 6.36224C53.5163 4.74121 60.8001 3.93101 68.0826 3.93101C75.3652 3.93101 82.649 4.74121 89.9359 6.36224C90.3325 6.44396 90.7453 6.36647 91.0853 6.1465C91.4252 5.92652 91.6651 5.58169 91.753 5.18643C91.841 4.79117 91.77 4.37718 91.5554 4.03379C91.3408 3.6904 90.9998 3.44515 90.606 3.35097C83.1007 1.6812 75.5923 0.845703 68.0832 0.845703C60.8408 0.845703 53.6008 1.62258 46.3633 3.17511L45.5593 3.35097C38.273 4.972 30.9892 5.7822 23.7066 5.7822C16.4241 5.7822 9.14089 4.972 1.854 3.35097C1.45741 3.26925 1.04458 3.34674 0.704614 3.56672C0.364648 3.78669 0.124803 4.13152 0.0368421 4.52678C-0.0511193 4.92204 0.0198557 5.33603 0.23445 5.67942C0.449044 6.02281 0.790049 6.26806 1.18387 6.36224Z" fill="#F2994A"/>
</svg>
