<svg width="170" height="26" viewBox="0 0 170 26" fill="none" xmlns="http://www.w3.org/2000/svg">
<path d="M157 0L161.419 7.97729L170 9.93112L164.15 16.8152L165.034 26L157 22.2773L148.966 26L149.85 16.8152L144 9.93112L152.581 7.97729L157 0Z" fill="#F2994A"/>
<path d="M121 0L125.419 7.97729L134 9.93112L128.15 16.8152L129.034 26L121 22.2773L112.966 26L113.85 16.8152L108 9.93112L116.581 7.97729L121 0Z" fill="#F2994A"/>
<path d="M85 0L89.4189 7.97729L98 9.93112L92.15 16.8152L93.0344 26L85 22.2773L76.9656 26L77.85 16.8152L72 9.93112L80.5811 7.97729L85 0Z" fill="#F2994A"/>
<path d="M49 0L53.4189 7.97729L62 9.93112L56.15 16.8152L57.0344 26L49 22.2773L40.9656 26L41.85 16.8152L36 9.93112L44.5811 7.97729L49 0Z" fill="#F2994A"/>
<path d="M13 0L17.4189 7.97729L26 9.93112L20.15 16.8152L21.0344 26L13 22.2773L4.96556 26L5.85 16.8152L0 9.93112L8.58106 7.97729L13 0Z" fill="#F2994A"/>
</svg>
